<svg xmlns="http://www.w3.org/2000/svg" viewBox="0 0 256 256" enable-background="new 0 0 256 256"><style type="text/css">.st0{fill:#4F9AD4;}</style><path class="st0" d="M44.3 110.7s-1.8-4.2-1.8-9.4l1.8-9.4c-.3 0-35.6 9.4-35.6 9.4s35.3 9.4 35.6 9.4zm167.4-18.9s1.8 4.2 1.8 9.4l-1.8 9.4c.3 0 35.6-9.4 35.6-9.4s-35.3-9.4-35.6-9.4z"/><circle class="st0" cx="91.4" cy="100.7" r="10.7"/><path class="st0" d="M193.2 87.5c1.4 0 2.5 1.1 2.5 2.5v22.5c0 1.4-1.1 2.5-2.5 2.5h-130.4c-1.4 0-2.5-1.1-2.5-2.5v-22.5c0-1.4 1.1-2.5 2.5-2.5h130.4m0-12.8h-130.4c-8.4 0-15.3 6.8-15.3 15.3v22.5c0 8.4 6.9 15.3 15.3 15.3h130.4c8.4 0 15.3-6.8 15.3-15.3v-22.5c0-8.4-6.8-15.3-15.3-15.3zm-66.1 91.5c-19.3 0-35.6 29.2-35.6 63.7 0 3.9.2 7.8.6 11.6 9.9 3.1 22 5 35 5s25.1-1.9 35-5c.4-3.8.6-7.6.6-11.6 0-34.5-16.3-63.7-35.6-63.7zm-21.5 62.2c0 2.3-1.9 4.2-4.2 4.2-2.3 0-4.2-1.9-4.2-4.2v-14.7c0-2.3 1.9-4.2 4.2-4.2 2.3 0 4.2 1.9 4.2 4.2v14.7zm16.9 0c0 2.3-1.9 4.2-4.2 4.2-2.3 0-4.2-1.9-4.2-4.2v-14.7c0-2.3 1.9-4.2 4.2-4.2 2.3 0 4.2 1.9 4.2 4.2v14.7zm16.9 0c0 2.3-1.9 4.2-4.2 4.2-2.3 0-4.2-1.9-4.2-4.2v-14.7c0-2.3 1.9-4.2 4.2-4.2 2.3 0 4.2 1.9 4.2 4.2v14.7zm17 0c0 2.3-1.9 4.2-4.2 4.2-2.3 0-4.2-1.9-4.2-4.2v-14.7c0-2.3 1.9-4.2 4.2-4.2 2.3 0 4.2 1.9 4.2 4.2v14.7zm-90.1-111.6v10.9h88.1c1.6 0 3 1.3 3 3 0 1.6-1.3 3-3 3h-88.1v85.7c0 7.3 6.5 13.9 17 18.8-.2-2.7-.3-5.4-.3-8.2 0-40.5 19.4-72.1 44.1-72.1 24.7 0 44.1 31.7 44.1 72.1 0 2.8-.1 5.5-.3 8.2 10.5-4.9 17-11.5 17-18.8v-102.6h-121.6zm60.8-55.1c-2.1 0-3.8-1.7-3.8-3.8 0-2.1 1.7-3.8 3.8-3.8h60.3c-.7-2.1-1.5-4.2-2.4-6.2h-35.8c-3.5 0-6.4-2.9-6.4-6.4 0-3.5 2.9-6.4 6.4-6.4h28.4c-11.6-15.7-29.9-25.6-50.5-25.6-32.3 0-59 24.1-63 57.1h126c-.2-1.7-.5-3.3-.8-4.9h-62.2zm4.4-27c3.7 0 6.7 3 6.7 6.7s-3 6.7-6.7 6.7-6.7-3-6.7-6.7 3-6.7 6.7-6.7z"/></svg>